HIERARCHY
ROOT Hips
{
  OFFSET 5.72205e-005 65.662 3.42586
  CHANNELS 6 Xposition Yposition Zposition Zrotation Xrotation Yrotation
  JOINT Chest
  {
    OFFSET 0 8.7983 -4.7612
    CHANNELS 3 Zrotation Xrotation Yrotation
    JOINT Chest2
    {
      OFFSET 0 8.0291 0.4195
      CHANNELS 3 Zrotation Xrotation Yrotation
      JOINT Chest3
      {
        OFFSET 0 9.9351 -2.2114
        CHANNELS 3 Zrotation Xrotation Yrotation
        JOINT Neck
        {
          OFFSET 0 22.3885 -0.4656
          CHANNELS 3 Zrotation Xrotation Yrotation
          JOINT Head
          {
            OFFSET -0.0001 12.643 3.4389
            CHANNELS 3 Zrotation Xrotation Yrotation
            End Site
            {
              OFFSET 0.0001 17.6655 0.5274
            }
          }
        }
        JOINT LeftCollar
        {
          OFFSET 2.2603 21.606 7.4023
          CHANNELS 3 Zrotation Xrotation Yrotation
          JOINT LeftShoulder
          {
            OFFSET 13.5163 -1.1332 -5.0146
            CHANNELS 3 Zrotation Xrotation Yrotation
            JOINT LeftElbow
            {
              OFFSET -0.0995 -28.05 -0.2431
              CHANNELS 3 Zrotation Xrotation Yrotation
              JOINT LeftWrist
              {
                OFFSET 0.0679 -23.3996 -0.1402
                CHANNELS 3 Zrotation Xrotation Yrotation
                JOINT LeftFinger1
                {
                  OFFSET 0.7932 -9.069 2.5189
                  CHANNELS 3 Zrotation Xrotation Yrotation
                  JOINT LeftFinger11
                  {
                    OFFSET -0.8272 -3.3923 0.5977
                    CHANNELS 3 Zrotation Xrotation Yrotation
                    JOINT LeftFinger12
                    {
                      OFFSET -0.5649 -2.3158 0.4082
                      CHANNELS 3 Zrotation Xrotation Yrotation
                      End Site
                      {
                        OFFSET -0.4919 -1.6479 0.2673
                      }
                    }
                  }
                }
                JOINT LeftFinger2
                {
                  OFFSET 0.9159 -9.2044 0.2193
                  CHANNELS 3 Zrotation Xrotation Yrotation
                  JOINT LeftFinger21
                  {
                    OFFSET 0.0117 -4.1944 -0.0248
                    CHANNELS 3 Zrotation Xrotation Yrotation
                    JOINT LeftFinger22
                    {
                      OFFSET 0.0071 -2.3249 -0.0142
                      CHANNELS 3 Zrotation Xrotation Yrotation
                      End Site
                      {
                        OFFSET -0.1475 -2.0882 0.0028
                      }
                    }
                  }
                }
                JOINT LeftFinger3
                {
                  OFFSET 0.6113 -8.7231 -2.0637
                  CHANNELS 3 Zrotation Xrotation Yrotation
                  JOINT LeftFinger31
                  {
                    OFFSET -0.1927 -3.8059 -0.2383
                    CHANNELS 3 Zrotation Xrotation Yrotation
                    JOINT LeftFinger32
                    {
                      OFFSET -0.1091 -2.1688 -0.1362
                      CHANNELS 3 Zrotation Xrotation Yrotation
                      End Site
                      {
                        OFFSET -0.2358 -1.9176 -0.0906
                      }
                    }
                  }
                }
                JOINT LeftFinger4
                {
                  OFFSET -0.6151 -8.0947 -3.5641
                  CHANNELS 3 Zrotation Xrotation Yrotation
                  JOINT LeftFinger41
                  {
                    OFFSET -0.4882 -2.341 -0.6462
                    CHANNELS 3 Zrotation Xrotation Yrotation
                    JOINT LeftFinger42
                    {
                      OFFSET -0.3575 -1.7167 -0.4742
                      CHANNELS 3 Zrotation Xrotation Yrotation
                      End Site
                      {
                        OFFSET -0.4187 -1.5237 -0.3496
                      }
                    }
                  }
                }
                JOINT LeftFinger0
                {
                  OFFSET -1.42 -1.8761 1.4223
                  CHANNELS 3 Zrotation Xrotation Yrotation
                  JOINT LeftFinger01
                  {
                    OFFSET -1.1471 -3.4929 2.6334
                    CHANNELS 3 Zrotation Xrotation Yrotation
                    JOINT LeftFinger02
                    {
                      OFFSET -0.823 -2.3 1.6571
                      CHANNELS 3 Zrotation Xrotation Yrotation
                      End Site
                      {
                        OFFSET -0.5822 -1.6914 1.1582
                      }
                    }
                  }
                }
              }
            }
          }
        }
        JOINT RightCollar
        {
          OFFSET -2.2603 21.606 7.4023
          CHANNELS 3 Zrotation Xrotation Yrotation
          JOINT RightShoulder
          {
            OFFSET -13.5187 -1.1334 -5.0155
            CHANNELS 3 Zrotation Xrotation Yrotation
            JOINT RightElbow
            {
              OFFSET 0.0994 -28.0499 -0.2431
              CHANNELS 3 Zrotation Xrotation Yrotation
              JOINT RightWrist
              {
                OFFSET -0.0679 -23.3996 -0.1402
                CHANNELS 3 Zrotation Xrotation Yrotation
                JOINT RightFinger1
                {
                  OFFSET -0.7932 -9.0691 2.5189
                  CHANNELS 3 Zrotation Xrotation Yrotation
                  JOINT RightFinger11
                  {
                    OFFSET 0.8272 -3.3923 0.5977
                    CHANNELS 3 Zrotation Xrotation Yrotation
                    JOINT RightFinger12
                    {
                      OFFSET 0.565 -2.3158 0.4082
                      CHANNELS 3 Zrotation Xrotation Yrotation
                      End Site
                      {
                        OFFSET 0.4919 -1.6479 0.2673
                      }
                    }
                  }
                }
                JOINT RightFinger2
                {
                  OFFSET -0.916 -9.2044 0.2193
                  CHANNELS 3 Zrotation Xrotation Yrotation
                  JOINT RightFinger21
                  {
                    OFFSET -0.0117 -4.1944 -0.0248
                    CHANNELS 3 Zrotation Xrotation Yrotation
                    JOINT RightFinger22
                    {
                      OFFSET -0.0071 -2.3249 -0.0142
                      CHANNELS 3 Zrotation Xrotation Yrotation
                      End Site
                      {
                        OFFSET 0.1475 -2.0882 0.0028
                      }
                    }
                  }
                }
                JOINT RightFinger3
                {
                  OFFSET -0.6113 -8.7231 -2.0637
                  CHANNELS 3 Zrotation Xrotation Yrotation
                  JOINT RightFinger31
                  {
                    OFFSET 0.1927 -3.8059 -0.2383
                    CHANNELS 3 Zrotation Xrotation Yrotation
                    JOINT RightFinger32
                    {
                      OFFSET 0.1091 -2.1688 -0.1362
                      CHANNELS 3 Zrotation Xrotation Yrotation
                      End Site
                      {
                        OFFSET 0.2358 -1.9176 -0.0906
                      }
                    }
                  }
                }
                JOINT RightFinger4
                {
                  OFFSET 0.6151 -8.0947 -3.564
                  CHANNELS 3 Zrotation Xrotation Yrotation
                  JOINT RightFinger41
                  {
                    OFFSET 0.4882 -2.341 -0.6462
                    CHANNELS 3 Zrotation Xrotation Yrotation
                    JOINT RightFinger42
                    {
                      OFFSET 0.3574 -1.7166 -0.4742
                      CHANNELS 3 Zrotation Xrotation Yrotation
                      End Site
                      {
                        OFFSET 0.4187 -1.5237 -0.3496
                      }
                    }
                  }
                }
                JOINT RightFinger0
                {
                  OFFSET 1.4199 -1.8761 1.4221
                  CHANNELS 3 Zrotation Xrotation Yrotation
                  JOINT RightFinger01
                  {
                    OFFSET 1.1472 -3.4929 2.6336
                    CHANNELS 3 Zrotation Xrotation Yrotation
                    JOINT RightFinger02
                    {
                      OFFSET 0.8229 -2.3 1.6571
                      CHANNELS 3 Zrotation Xrotation Yrotation
                      End Site
                      {
                        OFFSET 0.5822 -1.6914 1.1582
                      }
                    }
                  }
                }
              }
            }
          }
        }
      }
    }
  }
  JOINT RightHip
  {
    OFFSET -9.412 3.9771 -0.7758
    CHANNELS 3 Zrotation Xrotation Yrotation
    JOINT RightKnee
    {
      OFFSET -0.7531 -40.938 0
      CHANNELS 3 Zrotation Xrotation Yrotation
      JOINT RightAnkle
      {
        OFFSET 0 -40.1986 0
        CHANNELS 3 Zrotation Xrotation Yrotation
        JOINT RightToe
        {
          OFFSET 0 -4.4182 9.239
          CHANNELS 3 Zrotation Xrotation Yrotation
          End Site
          {
            OFFSET 0 0 6.1981
          }
        }
      }
    }
  }
  JOINT LeftHip
  {
    OFFSET 9.4119 3.9773 -0.7758
    CHANNELS 3 Zrotation Xrotation Yrotation
    JOINT LeftKnee
    {
      OFFSET 0.7532 -40.9383 0
      CHANNELS 3 Zrotation Xrotation Yrotation
      JOINT LeftAnkle
      {
        OFFSET 0 -40.1986 0
        CHANNELS 3 Zrotation Xrotation Yrotation
        JOINT LeftToe
        {
          OFFSET 0 -4.4182 9.239
          CHANNELS 3 Zrotation Xrotation Yrotation
          End Site
          {
            OFFSET 0 0 6.1981
          }
        }
      }
    }
  }
}
MOTION
Frames:	6
Frame Time:	0.0333333
5.72205e-005 65.662 3.42586 0 0 -0 0 0 -0 0 0 -0 0 0 -0 0 0 -0 0 0 -0 0 0 -12.5014 88.1196 14.2451 10.6914 -0.00160068 -0.00239207 0.000740045 -8.4365e-005 7.00714e-005 -9.52055e-007 9.93923e-017 -1.98785e-016 -1.59028e-015 9.93923e-017 -5.96354e-016 -1.59028e-015 -9.93923e-017 -5.96354e-016 -1.59028e-015 9.93923e-017 -1.98785e-016 -1.59028e-015 -0.0128176 0.00232552 8.52707e-005 9.93923e-017 5.96354e-016 -0 9.93923e-017 -1.98785e-016 -1.59028e-015 -0.0160551 0.00299681 0.000857156 -2.48481e-016 0 3.18055e-015 9.93923e-017 -1.98785e-016 -1.59028e-015 -0.0125865 0.0031206 0.00282719 0 1.98785e-016 -0 9.93923e-017 -1.98785e-016 -1.59028e-015 9.93923e-017 -5.96354e-016 -1.59028e-015 -9.93923e-017 -5.96354e-016 -1.59028e-015 -0.865644 0.16582 7.03859 -88.0329 10.2057 -10.5567 0.0015593 -0.00248883 -0.000788628 7.87605e-005 4.10553e-005 1.24965e-005 -3.97569e-016 -7.95139e-016 3.18055e-015 -1.98785e-016 -3.97569e-016 3.18055e-015 -1.98785e-016 0 3.18055e-015 -3.97569e-016 -7.95139e-016 3.18055e-015 0.0129473 0.00231697 -8.70038e-005 9.93923e-017 -7.95139e-016 1.59028e-015 -3.97569e-016 -7.95139e-016 3.18055e-015 0.0163314 0.00303369 -0.000872333 3.97569e-016 7.95139e-016 -3.18055e-015 -3.97569e-016 -7.95139e-016 3.18055e-015 0.0145763 0.00367772 -0.00326275 9.93923e-017 -3.97569e-016 -0 -3.97569e-016 -7.95139e-016 3.18055e-015 -1.98785e-016 -3.97569e-016 3.18055e-015 -1.98785e-016 0 3.18055e-015 3.42482 1.32465 -0.0626183 0.000117508 0.717283 0.000978199 -3.4257 -2.04197 -0.0604716 6.47761e-025 0 -0 -3.42483 1.34017 0.0627307 -0.000193936 0.682302 -0.0013703 3.42574 -2.02253 0.0595886 -8.45714e-024 0 -7.40531e-025 
12.5697 -0.153908 20.1434 85.9767 -0.00195853 90.0016 -0.269807 -0.179196 -0.206648 -0.540165 -0.315347 -0.413898 -0.540151 -0.314707 -0.413888 0.00032458 -4.35211e-005 0.000250805 -1.49486e-005 7.35632e-005 17.9983 -8.00927 -0.0485252 -12.2328 111.522 9.43598 5.60315 -78.4987 -61.6131 -23.6643 -19.227 2.89734 16.9933 2.28101e-006 -5.53223e-006 -7.48495e-006 -3.18055e-015 -9.14409e-015 1.27222e-014 -1.38117e-006 4.40059e-007 -8.06343e-007 2.28101e-006 -5.53223e-006 -7.48495e-006 -0.0128241 0.00231403 7.26128e-005 -1.38101e-006 -4.5597e-007 -8.064e-007 2.28101e-006 -5.53223e-006 -7.48495e-006 -0.0160353 0.00299514 0.000859101 7.95139e-016 7.95139e-015 -0 2.28101e-006 -5.53223e-006 -7.48495e-006 -0.0125335 0.00310194 0.00280077 -2.96538e-007 -2.00098e-006 4.98158e-006 2.28101e-006 -5.53223e-006 -7.48495e-006 -3.18055e-015 -9.14409e-015 1.27222e-014 -1.38117e-006 4.40059e-007 -8.06343e-007 7.13382 -0.0287568 7.03372 -17.3674 1.29783 1.66128 178.477 -64.4177 164.325 7.01212 1.2771 0.317436 -3.18055e-015 -7.15625e-015 3.97569e-015 -6.36111e-015 -7.55382e-015 4.77083e-015 -3.18055e-015 3.97569e-016 3.18055e-015 -3.18055e-015 -7.15625e-015 3.97569e-015 0.0129023 0.00231094 -8.18941e-005 -3.18055e-015 -1.98785e-015 1.59028e-015 -3.18055e-015 -7.15625e-015 3.97569e-015 0.0163426 0.00304616 -0.000871318 3.18055e-015 -1.51076e-014 -2.38542e-015 -3.18055e-015 -7.15625e-015 3.97569e-015 0.0146017 0.00370446 -0.00327708 -2.53412e-006 -3.86858e-005 1.89766e-005 -3.18055e-015 -7.15625e-015 3.97569e-015 -6.36111e-015 -7.55382e-015 4.77083e-015 -3.18055e-015 3.97569e-016 3.18055e-015 -21.575 -5.7699 -3.49411 2.47708 18.9181 -1.3061 -5.45246 22.6218 1.11669 5.8569e-006 -1.35989e-005 -1.88433e-006 8.91287 -24.0921 5.52321 -4.30137 61.0783 4.73962 5.45151 3.11608 1.28868 -2.71016e-006 -1.39556e-005 -5.65731e-007 
12.5697 -0.153908 20.1434 85.9767 -0.00195853 90.0016 -0.269807 -0.179196 -0.206648 -0.540165 -0.315347 -0.413898 -0.540151 -0.314707 -0.413888 0.00032458 -4.35211e-005 0.000250805 -2.48603e-006 0.230422 17.9984 -8.00927 -0.0485252 -12.2328 111.522 9.43598 5.60315 -78.4987 -61.6131 -23.6643 -19.227 2.89734 16.9933 2.28101e-006 -5.53223e-006 -7.48495e-006 -3.18055e-015 -9.14409e-015 1.27222e-014 -1.38117e-006 4.40059e-007 -8.06343e-007 2.28101e-006 -5.53223e-006 -7.48495e-006 -0.0128241 0.00231403 7.26128e-005 -1.38101e-006 -4.5597e-007 -8.064e-007 2.28101e-006 -5.53223e-006 -7.48495e-006 -0.0160353 0.00299514 0.000859101 7.95139e-016 7.95139e-015 -0 2.28101e-006 -5.53223e-006 -7.48495e-006 -0.0125335 0.00310194 0.00280077 -2.96538e-007 -2.00098e-006 4.98158e-006 2.28101e-006 -5.53223e-006 -7.48495e-006 -3.18055e-015 -9.14409e-015 1.27222e-014 -1.38117e-006 4.40059e-007 -8.06343e-007 7.13382 -0.0287568 7.03372 -17.3674 1.29783 1.66129 178.526 -64.6825 164.401 7.01183 1.27708 0.317438 -7.16591e-006 1.31735e-005 -1.05348e-006 -6.36111e-015 -4.77083e-015 3.18055e-015 -3.18055e-015 -5.56597e-015 7.95139e-016 -7.16591e-006 1.31735e-005 -1.05348e-006 0.012948 0.00229114 -8.15849e-005 6.36111e-015 3.97569e-015 1.59028e-015 -7.16591e-006 1.31735e-005 -1.05348e-006 0.0163265 0.00301091 -0.000865433 -3.18055e-015 6.36111e-015 -0 -7.16591e-006 1.31735e-005 -1.05348e-006 0.0146181 0.00366905 -0.00326849 -3.18055e-015 3.18055e-015 -7.95139e-016 -7.16591e-006 1.31735e-005 -1.05348e-006 -6.36111e-015 -4.77083e-015 3.18055e-015 -3.18055e-015 -5.56597e-015 7.95139e-016 -21.5751 -5.76983 -3.49407 2.47707 18.9179 -1.3061 -5.45246 22.6219 1.1167 -4.37904e-006 4.70676e-005 -7.81892e-006 8.91285 -24.092 5.5232 -4.30126 61.0782 4.73956 5.45146 3.11602 1.28867 7.95139e-016 -3.57812e-015 -0 
12.5697 -0.153908 20.1434 85.9769 -0.00195124 90.0016 -0.269824 -0.180138 -0.206654 -0.540167 -0.314834 -0.413887 -0.540159 -0.314135 -0.413882 0.000317924 0.00019806 0.000250545 -1.83788e-005 0.460686 17.9984 -8.00927 -0.0484111 -12.2328 111.521 9.4353 5.60339 -78.4965 -61.6129 -23.6631 -19.227 2.89733 16.9932 1.67769e-006 -2.07039e-006 -4.17531e-006 -6.36111e-015 3.97569e-016 -0 -1.67769e-006 2.07039e-006 4.17531e-006 1.67769e-006 -2.07039e-006 -4.17531e-006 -0.0128442 0.00233828 8.33134e-005 -2.76201e-006 -2.11492e-006 -1.6128e-006 1.67769e-006 -2.07039e-006 -4.17531e-006 -0.0160598 0.00299054 0.000852791 -5.84247e-006 -3.72645e-006 -1.15513e-005 1.67769e-006 -2.07039e-006 -4.17531e-006 -0.0125717 0.00312742 0.00283323 7.95139e-015 3.18055e-015 -3.18055e-015 1.67769e-006 -2.07039e-006 -4.17531e-006 -6.36111e-015 3.97569e-016 -0 -1.67769e-006 2.07039e-006 4.17531e-006 7.13382 -0.0287165 7.03371 -17.3674 1.29787 1.6613 178.577 -64.9479 164.477 7.01157 1.27701 0.317441 -0 -6.36111e-015 -0 -3.18055e-015 -2.78299e-015 -7.95139e-016 -0 -1.59028e-015 -0 -0 -6.36111e-015 -0 0.0129462 0.0023638 -9.99708e-005 6.36111e-015 1.59028e-015 7.95139e-016 -0 -6.36111e-015 -0 0.0163157 0.00304727 -0.000875625 0 5.96354e-015 -0 -0 -6.36111e-015 -0 0.0145578 0.00369459 -0.00325069 6.36111e-015 1.98785e-015 -0 -0 -6.36111e-015 -0 -3.18055e-015 -2.78299e-015 -7.95139e-016 -0 -1.59028e-015 -0 -21.5751 -5.76945 -3.49396 2.47708 18.9175 -1.30608 -5.45248 22.6219 1.11671 -4.30473e-006 3.93244e-006 3.03399e-006 8.91283 -24.0917 5.52314 -4.30137 61.0782 4.73963 5.4515 3.11604 1.2887 -7.95139e-016 1.78906e-015 1.59028e-015 
12.5697 -0.153915 20.1434 85.9729 -0.00194588 90.0015 -0.269793 -0.183657 -0.206708 -0.540178 -0.315095 -0.413901 -0.540163 -0.314212 -0.413881 0.000307918 0.000282047 0.000243035 -1.39513e-005 0.691089 17.9984 -8.00926 -0.0485244 -12.2328 111.521 9.43529 5.60337 -78.4964 -61.6129 -23.663 -19.227 2.89734 16.9932 -3.97569e-015 3.55598e-006 -6.36111e-015 3.18055e-015 -3.18055e-015 -3.18055e-015 1.38117e-006 -4.40051e-007 8.06344e-007 -3.97569e-015 3.55598e-006 -6.36111e-015 -0.0127897 0.00230844 8.54647e-005 -1.68839e-006 6.35574e-006 -2.47842e-006 -3.97569e-015 3.55598e-006 -6.36111e-015 -0.0160693 0.00300309 0.000860822 2.45439e-006 -7.33916e-006 -5.91339e-008 -3.97569e-015 3.55598e-006 -6.36111e-015 -0.0125776 0.00312106 0.00282793 3.05854e-006 8.35591e-007 -3.36868e-006 -3.97569e-015 3.55598e-006 -6.36111e-015 3.18055e-015 -3.18055e-015 -3.18055e-015 1.38117e-006 -4.40051e-007 8.06344e-007 7.13382 -0.0287322 7.03372 -17.3673 1.29787 1.66126 178.629 -65.2139 164.556 7.0113 1.27698 0.317405 -9.54166e-015 -1.19271e-014 -7.95139e-016 7.18078e-006 6.77658e-006 -2.45316e-006 0 6.75868e-015 -0 -9.54166e-015 -1.19271e-014 -7.95139e-016 0.0129242 0.00229939 -7.52761e-005 -3.18055e-015 -1.98785e-015 7.95139e-016 -9.54166e-015 -1.19271e-014 -7.95139e-016 0.0163421 0.00300573 -0.000865985 2.20695e-032 -1.59028e-015 7.95139e-016 -9.54166e-015 -1.19271e-014 -7.95139e-016 0.0145733 0.00365787 -0.00326307 3.18055e-015 5.1684e-015 -7.95139e-016 -9.54166e-015 -1.19271e-014 -7.95139e-016 7.18078e-006 6.77658e-006 -2.45316e-006 0 6.75868e-015 -0 -21.5752 -5.77313 -3.49538 2.47706 18.9174 -1.30608 -5.45246 22.6219 1.11672 3.18055e-015 -2.95091e-006 -6.36111e-015 8.9131 -24.0956 5.52381 -4.30129 61.0781 4.73956 5.45145 3.1161 1.28867 3.97569e-015 -6.36111e-015 -0 
12.5697 -0.153908 20.1434 85.9769 -0.00195124 90.0016 -0.269824 -0.180138 -0.206654 -0.540167 -0.314834 -0.413887 -0.540159 -0.314135 -0.413882 0.000317924 0.00019806 0.000250545 -2.14514e-005 0.921923 17.9984 -8.00927 -0.0484266 -12.2328 111.522 9.43606 5.60315 -78.499 -61.6131 -23.6644 -19.227 2.89734 16.9932 -0 -3.57812e-015 -0 -3.97569e-015 -2.78299e-015 6.36111e-015 -3.05887e-006 -1.87637e-006 3.36896e-006 -0 -3.57812e-015 -0 -0.0128224 0.00234241 8.83975e-005 -2.36252e-006 -2.97158e-006 7.09886e-006 -0 -3.57812e-015 -0 -0.0160271 0.00299703 0.000863166 -3.0753e-007 -3.15675e-006 -1.67198e-006 -0 -3.57812e-015 -0 -0.0126375 0.00312827 0.00283573 -1.67754e-006 -1.13146e-006 4.17513e-006 -0 -3.57812e-015 -0 -3.97569e-015 -2.78299e-015 6.36111e-015 -3.05887e-006 -1.87637e-006 3.36896e-006 7.13382 -0.0287165 7.03371 -17.3674 1.29791 1.66124 178.682 -65.4805 164.635 7.01106 1.27689 0.317386 -3.18055e-015 -4.37326e-015 -0 4.96564e-032 3.57812e-015 -7.95139e-016 0 1.19271e-015 -0 -3.18055e-015 -4.37326e-015 -0 0.012882 0.00226403 -7.2538e-005 6.36111e-015 -9.54166e-015 2.38542e-015 -3.18055e-015 -4.37326e-015 -0 0.0163547 0.00304059 -0.000876379 3.18055e-015 5.56597e-015 -7.95139e-016 -3.18055e-015 -4.37326e-015 -0 0.0145981 0.00367261 -0.00325297 3.18055e-015 4.77083e-015 -1.59028e-015 -3.18055e-015 -4.37326e-015 -0 4.96564e-032 3.57812e-015 -7.95139e-016 0 1.19271e-015 -0 -21.5751 -5.76936 -3.4939 2.47707 18.9173 -1.30606 -5.45245 22.6219 1.11674 -5.87843e-006 3.24042e-005 -1.11935e-005 8.91283 -24.0918 5.52315 -4.30133 61.0783 4.73964 5.45149 3.11602 1.28865 -3.57618e-006 5.42848e-006 3.6503e-006 
